<?xml version="1.0" standalone="no"?>
<!DOCTYPE svg PUBLIC "-//W3C//DTD SVG 20010904//EN"
 "http://www.w3.org/TR/2001/REC-SVG-20010904/DTD/svg10.dtd">
<svg version="1.0" xmlns="http://www.w3.org/2000/svg"
 width="200.000000pt" height="200.000000pt" viewBox="0 0 200.000000 200.000000"
 preserveAspectRatio="xMidYMid meet">
<metadata>
Created by potrace 1.14, written by Peter Selinger 2001-2017
</metadata>
<g transform="translate(0.000000,200.000000) scale(0.100000,-0.100000)"
fill="#000000" stroke="none">
<path d="M887 1894 c-4 -4 -7 -15 -7 -24 0 -9 -6 -25 -14 -36 -12 -16 -30 -20
-123 -24 l-108 -5 -43 -88 c-24 -48 -41 -94 -38 -102 5 -13 68 -15 456 -15
522 0 476 -14 410 125 l-41 85 -97 0 c-109 0 -139 12 -144 58 l-3 27 -121 3
c-66 1 -123 -1 -127 -4z m140 -40 c9 -23 -13 -40 -32 -24 -12 10 -13 16 -4 26
15 18 28 18 36 -2z"/>
<path d="M317 1762 c-16 -17 -17 -89 -17 -825 0 -719 2 -807 16 -821 14 -14
90 -16 684 -16 594 0 670 2 684 16 14 14 16 102 16 824 l0 809 -22 15 c-17 12
-49 16 -135 16 -62 0 -113 -2 -113 -4 0 -2 9 -25 20 -50 l19 -46 61 0 60 0 0
-735 0 -735 -590 0 -590 0 0 735 0 735 65 0 65 0 20 40 c11 21 20 44 20 50 0
6 -45 10 -123 10 -107 0 -126 -2 -140 -18z"/>
<path d="M800 1405 l-84 -85 -38 37 c-36 35 -39 36 -55 20 -17 -16 -14 -20 40
-74 l57 -58 100 100 c70 70 100 106 98 120 -6 39 -34 24 -118 -60z"/>
<path d="M550 1320 l0 -140 135 0 135 0 0 77 0 76 -25 -23 c-15 -14 -25 -35
-25 -52 l0 -28 -85 0 -85 0 0 91 0 91 94 -3 c96 -3 126 6 126 37 0 11 -27 14
-135 14 l-135 0 0 -140z"/>
<path d="M970 1345 l0 -25 245 0 245 0 0 25 0 25 -245 0 -245 0 0 -25z"/>
<path d="M970 1255 l0 -25 245 0 245 0 0 25 0 25 -245 0 -245 0 0 -25z"/>
<path d="M803 958 l-83 -82 -34 33 c-33 32 -65 38 -73 14 -5 -14 84 -113 101
-113 18 0 206 194 206 213 0 35 -37 15 -117 -65z"/>
<path d="M550 875 l0 -135 135 0 135 0 0 77 0 76 -25 -23 c-15 -14 -25 -35
-25 -52 l0 -28 -85 0 -85 0 0 86 0 86 94 -3 c96 -3 126 6 126 37 0 11 -27 14
-135 14 l-135 0 0 -135z"/>
<path d="M970 905 l0 -25 245 0 245 0 0 25 0 25 -245 0 -245 0 0 -25z"/>
<path d="M970 815 l0 -25 245 0 245 0 0 25 0 25 -245 0 -245 0 0 -25z"/>
<path d="M550 430 l0 -140 135 0 135 0 0 140 0 140 -135 0 -135 0 0 -140z
m220 0 l0 -90 -85 0 -85 0 0 90 0 90 85 0 85 0 0 -90z"/>
<path d="M970 465 l0 -25 245 0 245 0 0 25 0 25 -245 0 -245 0 0 -25z"/>
<path d="M970 375 l0 -25 245 0 245 0 0 25 0 25 -245 0 -245 0 0 -25z"/>
</g>
</svg>
